<?xml version="1.0" encoding="utf-8" standalone="no"?><!DOCTYPE svg PUBLIC "-//W3C//DTD SVG 1.1//EN" "http://www.w3.org/Graphics/SVG/1.1/DTD/svg11.dtd">
<svg preserveAspectRatio="xMinYMin meet" width="100%" height="100%" viewBox="0 0 560.000 420.000"  version="1.1" xmlns="http://www.w3.org/2000/svg" xmlns:xlink="http://www.w3.org/1999/xlink">
  <desc>Matlab Figure Converted by PLOT2SVG written by Juerg Schwizer</desc>
  <g id="topgroup">
  <rect x="0" y="0" width="560.000" height="420.000" fill="#ffffff" stroke="none" />
  <g id ="ID000000">
  <clipPath id="ID000001">
    <rect x="72.800" y="36.000" width="434.000" height="337.800"/>
  </clipPath>
      <polygon fill="#ffffff" fill-opacity="1.00" stroke="none" stroke-width="2.0pt" stroke-opacity="1.00" stroke-dasharray="none" points="72.800,373.800 506.800,373.800 506.800,36.000 72.800,36.000 "/>
      <polygon fill="#ffffff" fill-opacity="1.00" stroke="none" stroke-width="2.0pt" stroke-opacity="1.00" stroke-dasharray="none" points="72.800,373.800 506.800,373.800 506.800,373.800 72.800,373.800 "/>
      <polygon fill="#ffffff" fill-opacity="1.00" stroke="none" stroke-width="2.0pt" stroke-opacity="1.00" stroke-dasharray="none" points="72.800,373.800 72.800,373.800 72.800,36.000 72.800,36.000 "/>
      <polyline fill="none" stroke="#000000" stroke-width="2.0pt" stroke-dasharray="2.0pt,2.0pt" points="112.255,373.800 112.255,36.000 "/>
      <polyline fill="none" stroke="#000000" stroke-width="2.0pt" stroke-dasharray="2.0pt,2.0pt" points="151.709,373.800 151.709,36.000 "/>
      <polyline fill="none" stroke="#000000" stroke-width="2.0pt" stroke-dasharray="2.0pt,2.0pt" points="191.164,373.800 191.164,36.000 "/>
      <polyline fill="none" stroke="#000000" stroke-width="2.0pt" stroke-dasharray="2.0pt,2.0pt" points="230.618,373.800 230.618,36.000 "/>
      <polyline fill="none" stroke="#000000" stroke-width="2.0pt" stroke-dasharray="2.0pt,2.0pt" points="270.073,373.800 270.073,36.000 "/>
      <polyline fill="none" stroke="#000000" stroke-width="2.0pt" stroke-dasharray="2.0pt,2.0pt" points="309.527,373.800 309.527,36.000 "/>
      <polyline fill="none" stroke="#000000" stroke-width="2.0pt" stroke-dasharray="2.0pt,2.0pt" points="348.982,373.800 348.982,36.000 "/>
      <polyline fill="none" stroke="#000000" stroke-width="2.0pt" stroke-dasharray="2.0pt,2.0pt" points="388.436,373.800 388.436,36.000 "/>
      <polyline fill="none" stroke="#000000" stroke-width="2.0pt" stroke-dasharray="2.0pt,2.0pt" points="427.891,373.800 427.891,36.000 "/>
      <polyline fill="none" stroke="#000000" stroke-width="2.0pt" stroke-dasharray="2.0pt,2.0pt" points="467.345,373.800 467.345,36.000 "/>
      <polyline fill="none" stroke="#000000" stroke-width="2.0pt" stroke-dasharray="2.0pt,2.0pt" points="72.800,317.500 506.800,317.500 "/>
      <polyline fill="none" stroke="#000000" stroke-width="2.0pt" stroke-dasharray="2.0pt,2.0pt" points="72.800,261.200 506.800,261.200 "/>
      <polyline fill="none" stroke="#000000" stroke-width="2.0pt" stroke-dasharray="2.0pt,2.0pt" points="72.800,204.900 506.800,204.900 "/>
      <polyline fill="none" stroke="#000000" stroke-width="2.0pt" stroke-dasharray="2.0pt,2.0pt" points="72.800,148.600 506.800,148.600 "/>
      <polyline fill="none" stroke="#000000" stroke-width="2.0pt" stroke-dasharray="2.0pt,2.0pt" points="72.800,92.300 506.800,92.300 "/>
      <polyline fill="none" stroke="#000000" stroke-width="2.0pt" stroke-dasharray="2.0pt,2.0pt" points="112.255,373.800 112.255,373.800 "/>
      <polyline fill="none" stroke="#000000" stroke-width="2.0pt" stroke-dasharray="2.0pt,2.0pt" points="151.709,373.800 151.709,373.800 "/>
      <polyline fill="none" stroke="#000000" stroke-width="2.0pt" stroke-dasharray="2.0pt,2.0pt" points="191.164,373.800 191.164,373.800 "/>
      <polyline fill="none" stroke="#000000" stroke-width="2.0pt" stroke-dasharray="2.0pt,2.0pt" points="230.618,373.800 230.618,373.800 "/>
      <polyline fill="none" stroke="#000000" stroke-width="2.0pt" stroke-dasharray="2.0pt,2.0pt" points="270.073,373.800 270.073,373.800 "/>
      <polyline fill="none" stroke="#000000" stroke-width="2.0pt" stroke-dasharray="2.0pt,2.0pt" points="309.527,373.800 309.527,373.800 "/>
      <polyline fill="none" stroke="#000000" stroke-width="2.0pt" stroke-dasharray="2.0pt,2.0pt" points="348.982,373.800 348.982,373.800 "/>
      <polyline fill="none" stroke="#000000" stroke-width="2.0pt" stroke-dasharray="2.0pt,2.0pt" points="388.436,373.800 388.436,373.800 "/>
      <polyline fill="none" stroke="#000000" stroke-width="2.0pt" stroke-dasharray="2.0pt,2.0pt" points="427.891,373.800 427.891,373.800 "/>
      <polyline fill="none" stroke="#000000" stroke-width="2.0pt" stroke-dasharray="2.0pt,2.0pt" points="467.345,373.800 467.345,373.800 "/>
      <polyline fill="none" stroke="#000000" stroke-width="2.0pt" stroke-dasharray="2.0pt,2.0pt" points="72.800,373.800 506.800,373.800 "/>
      <polyline fill="none" stroke="#000000" stroke-width="2.0pt" stroke-dasharray="2.0pt,2.0pt" points="72.800,317.500 72.800,317.500 "/>
      <polyline fill="none" stroke="#000000" stroke-width="2.0pt" stroke-dasharray="2.0pt,2.0pt" points="72.800,261.200 72.800,261.200 "/>
      <polyline fill="none" stroke="#000000" stroke-width="2.0pt" stroke-dasharray="2.0pt,2.0pt" points="72.800,204.900 72.800,204.900 "/>
      <polyline fill="none" stroke="#000000" stroke-width="2.0pt" stroke-dasharray="2.0pt,2.0pt" points="72.800,148.600 72.800,148.600 "/>
      <polyline fill="none" stroke="#000000" stroke-width="2.0pt" stroke-dasharray="2.0pt,2.0pt" points="72.800,92.300 72.800,92.300 "/>
      <polyline fill="none" stroke="#000000" stroke-width="2.0pt" stroke-dasharray="2.0pt,2.0pt" points="72.800,373.800 72.800,36.000 "/>
    <g>
<g id="ID000002" clip-path="url(#ID000001)" >
      <polyline fill="none" stroke="#0000ff" stroke-width="8.0pt" stroke-dasharray="none" points="72.800,294.980 112.255,279.216 151.709,233.050 191.164,181.254 230.618,123.828 270.073,87.796 309.527,69.780 348.982,70.906 388.436,110.316 427.891,169.994 467.345,239.806 506.800,281.468 "/>
<g>
</g>
</g>
<g id="ID000003" clip-path="url(#ID000001)" >
      <polyline fill="none" stroke="#007f00" stroke-width="12.0pt" stroke-dasharray="none" points="72.800,323.130 112.255,311.870 151.709,275.838 191.164,231.924 230.618,180.128 270.073,142.970 309.527,124.954 348.982,127.206 388.436,162.112 427.891,211.656 467.345,270.208 506.800,307.366 "/>
<g>
</g>
</g>
<g id="ID000004" clip-path="url(#ID000001)" >
      <polyline fill="none" stroke="#ff0000" stroke-width="8.0pt" stroke-dasharray="none" points="72.800,351.280 112.255,345.650 151.709,317.500 191.164,283.720 230.618,235.302 270.073,198.144 309.527,179.002 348.982,182.380 388.436,212.782 427.891,253.318 467.345,299.484 506.800,334.390 "/>
<g>
</g>
</g>
<g id="ID000005" >
</g>
<g id="ID000006" >
  <g transform="translate(34.300,206.399)">
    <g transform="rotate(-90.0)">
      <text x="0.000" y="0.000" font-family="Arial" text-anchor="middle" font-size="16pt" fill="#000000" >T [°C]</text>
    </g>
  </g>
</g>
<g id="ID000007" >
  <g transform="translate(289.300,21.506)">
    <g transform="rotate(-0.0)">
      <text x="0.000" y="0.000" font-family="Arial" text-anchor="middle" font-size="16pt" fill="#000000" >Temperature in Germany (1961-1990)</text>
    </g>
  </g>
</g>
<g id="ID000008" >
</g>
<g id="ID000009" >
</g>
    </g>
    <g>
      <polyline fill="none" stroke="#000000" stroke-width="2.0pt" stroke-dasharray="none" points="112.255,373.800 112.255,369.460 "/>
      <polyline fill="none" stroke="#000000" stroke-width="2.0pt" stroke-dasharray="none" points="151.709,373.800 151.709,369.460 "/>
      <polyline fill="none" stroke="#000000" stroke-width="2.0pt" stroke-dasharray="none" points="191.164,373.800 191.164,369.460 "/>
      <polyline fill="none" stroke="#000000" stroke-width="2.0pt" stroke-dasharray="none" points="230.618,373.800 230.618,369.460 "/>
      <polyline fill="none" stroke="#000000" stroke-width="2.0pt" stroke-dasharray="none" points="270.073,373.800 270.073,369.460 "/>
      <polyline fill="none" stroke="#000000" stroke-width="2.0pt" stroke-dasharray="none" points="309.527,373.800 309.527,369.460 "/>
      <polyline fill="none" stroke="#000000" stroke-width="2.0pt" stroke-dasharray="none" points="348.982,373.800 348.982,369.460 "/>
      <polyline fill="none" stroke="#000000" stroke-width="2.0pt" stroke-dasharray="none" points="388.436,373.800 388.436,369.460 "/>
      <polyline fill="none" stroke="#000000" stroke-width="2.0pt" stroke-dasharray="none" points="427.891,373.800 427.891,369.460 "/>
      <polyline fill="none" stroke="#000000" stroke-width="2.0pt" stroke-dasharray="none" points="467.345,373.800 467.345,369.460 "/>
      <polyline fill="none" stroke="#000000" stroke-width="2.0pt" stroke-dasharray="none" points="72.800,373.800 506.800,373.800 "/>
      <polyline fill="none" stroke="#000000" stroke-width="2.0pt" stroke-dasharray="none" points="112.255,36.000 112.255,40.340 "/>
      <polyline fill="none" stroke="#000000" stroke-width="2.0pt" stroke-dasharray="none" points="151.709,36.000 151.709,40.340 "/>
      <polyline fill="none" stroke="#000000" stroke-width="2.0pt" stroke-dasharray="none" points="191.164,36.000 191.164,40.340 "/>
      <polyline fill="none" stroke="#000000" stroke-width="2.0pt" stroke-dasharray="none" points="230.618,36.000 230.618,40.340 "/>
      <polyline fill="none" stroke="#000000" stroke-width="2.0pt" stroke-dasharray="none" points="270.073,36.000 270.073,40.340 "/>
      <polyline fill="none" stroke="#000000" stroke-width="2.0pt" stroke-dasharray="none" points="309.527,36.000 309.527,40.340 "/>
      <polyline fill="none" stroke="#000000" stroke-width="2.0pt" stroke-dasharray="none" points="348.982,36.000 348.982,40.340 "/>
      <polyline fill="none" stroke="#000000" stroke-width="2.0pt" stroke-dasharray="none" points="388.436,36.000 388.436,40.340 "/>
      <polyline fill="none" stroke="#000000" stroke-width="2.0pt" stroke-dasharray="none" points="427.891,36.000 427.891,40.340 "/>
      <polyline fill="none" stroke="#000000" stroke-width="2.0pt" stroke-dasharray="none" points="467.345,36.000 467.345,40.340 "/>
      <polyline fill="none" stroke="#000000" stroke-width="2.0pt" stroke-dasharray="none" points="72.800,36.000 506.800,36.000 "/>
  <g transform="translate(72.800,399.436)">
    <g transform="rotate(-0.0)">
      <text x="0.000" y="0.000" font-family="Arial" text-anchor="middle" font-size="16pt" fill="#000000" >Januar</text>
    </g>
  </g>
  <g transform="translate(112.255,399.436)">
    <g transform="rotate(-0.0)">
      <text x="0.000" y="0.000" font-family="Arial" text-anchor="middle" font-size="16pt" fill="#000000" >Februar</text>
    </g>
  </g>
  <g transform="translate(151.709,399.436)">
    <g transform="rotate(-0.0)">
      <text x="0.000" y="0.000" font-family="Arial" text-anchor="middle" font-size="16pt" fill="#000000" >March</text>
    </g>
  </g>
  <g transform="translate(191.164,399.436)">
    <g transform="rotate(-0.0)">
      <text x="0.000" y="0.000" font-family="Arial" text-anchor="middle" font-size="16pt" fill="#000000" >April</text>
    </g>
  </g>
  <g transform="translate(230.618,399.436)">
    <g transform="rotate(-0.0)">
      <text x="0.000" y="0.000" font-family="Arial" text-anchor="middle" font-size="16pt" fill="#000000" >May</text>
    </g>
  </g>
  <g transform="translate(270.073,399.436)">
    <g transform="rotate(-0.0)">
      <text x="0.000" y="0.000" font-family="Arial" text-anchor="middle" font-size="16pt" fill="#000000" >June</text>
    </g>
  </g>
  <g transform="translate(309.527,399.436)">
    <g transform="rotate(-0.0)">
      <text x="0.000" y="0.000" font-family="Arial" text-anchor="middle" font-size="16pt" fill="#000000" >July</text>
    </g>
  </g>
  <g transform="translate(348.982,399.436)">
    <g transform="rotate(-0.0)">
      <text x="0.000" y="0.000" font-family="Arial" text-anchor="middle" font-size="16pt" fill="#000000" >August</text>
    </g>
  </g>
  <g transform="translate(388.436,399.436)">
    <g transform="rotate(-0.0)">
      <text x="0.000" y="0.000" font-family="Arial" text-anchor="middle" font-size="16pt" fill="#000000" >September</text>
    </g>
  </g>
  <g transform="translate(427.891,399.436)">
    <g transform="rotate(-0.0)">
      <text x="0.000" y="0.000" font-family="Arial" text-anchor="middle" font-size="16pt" fill="#000000" >Oktober</text>
    </g>
  </g>
  <g transform="translate(467.345,399.436)">
    <g transform="rotate(-0.0)">
      <text x="0.000" y="0.000" font-family="Arial" text-anchor="middle" font-size="16pt" fill="#000000" >November</text>
    </g>
  </g>
  <g transform="translate(506.800,399.436)">
    <g transform="rotate(-0.0)">
      <text x="0.000" y="0.000" font-family="Arial" text-anchor="middle" font-size="16pt" fill="#000000" >December</text>
    </g>
  </g>
      <polyline fill="none" stroke="#000000" stroke-width="2.0pt" stroke-dasharray="none" points="72.800,317.500 77.140,317.500 "/>
      <polyline fill="none" stroke="#000000" stroke-width="2.0pt" stroke-dasharray="none" points="72.800,261.200 77.140,261.200 "/>
      <polyline fill="none" stroke="#000000" stroke-width="2.0pt" stroke-dasharray="none" points="72.800,204.900 77.140,204.900 "/>
      <polyline fill="none" stroke="#000000" stroke-width="2.0pt" stroke-dasharray="none" points="72.800,148.600 77.140,148.600 "/>
      <polyline fill="none" stroke="#000000" stroke-width="2.0pt" stroke-dasharray="none" points="72.800,92.300 77.140,92.300 "/>
      <polyline fill="none" stroke="#000000" stroke-width="2.0pt" stroke-dasharray="none" points="72.800,373.800 72.800,36.000 "/>
      <polyline fill="none" stroke="#000000" stroke-width="2.0pt" stroke-dasharray="none" points="506.800,317.500 502.460,317.500 "/>
      <polyline fill="none" stroke="#000000" stroke-width="2.0pt" stroke-dasharray="none" points="506.800,261.200 502.460,261.200 "/>
      <polyline fill="none" stroke="#000000" stroke-width="2.0pt" stroke-dasharray="none" points="506.800,204.900 502.460,204.900 "/>
      <polyline fill="none" stroke="#000000" stroke-width="2.0pt" stroke-dasharray="none" points="506.800,148.600 502.460,148.600 "/>
      <polyline fill="none" stroke="#000000" stroke-width="2.0pt" stroke-dasharray="none" points="506.800,92.300 502.460,92.300 "/>
      <polyline fill="none" stroke="#000000" stroke-width="2.0pt" stroke-dasharray="none" points="506.800,373.800 506.800,36.000 "/>
  <g transform="translate(64.120,381.000)">
    <g transform="rotate(-0.0)">
      <text x="0.000" y="0.000" font-family="Arial" text-anchor="end" font-size="16pt" fill="#000000" >-5</text>
    </g>
  </g>
  <g transform="translate(64.120,324.700)">
    <g transform="rotate(-0.0)">
      <text x="0.000" y="0.000" font-family="Arial" text-anchor="end" font-size="16pt" fill="#000000" >0</text>
    </g>
  </g>
  <g transform="translate(64.120,268.400)">
    <g transform="rotate(-0.0)">
      <text x="0.000" y="0.000" font-family="Arial" text-anchor="end" font-size="16pt" fill="#000000" >5</text>
    </g>
  </g>
  <g transform="translate(64.120,212.100)">
    <g transform="rotate(-0.0)">
      <text x="0.000" y="0.000" font-family="Arial" text-anchor="end" font-size="16pt" fill="#000000" >10</text>
    </g>
  </g>
  <g transform="translate(64.120,155.800)">
    <g transform="rotate(-0.0)">
      <text x="0.000" y="0.000" font-family="Arial" text-anchor="end" font-size="16pt" fill="#000000" >15</text>
    </g>
  </g>
  <g transform="translate(64.120,99.500)">
    <g transform="rotate(-0.0)">
      <text x="0.000" y="0.000" font-family="Arial" text-anchor="end" font-size="16pt" fill="#000000" >20</text>
    </g>
  </g>
  <g transform="translate(64.120,43.200)">
    <g transform="rotate(-0.0)">
      <text x="0.000" y="0.000" font-family="Arial" text-anchor="end" font-size="16pt" fill="#000000" >25</text>
    </g>
  </g>
      <polyline fill="none" stroke="#000000" stroke-width="2.0pt" stroke-dasharray="none" points="72.800,373.800 72.800,370.422 "/>
      <polyline fill="none" stroke="#000000" stroke-width="2.0pt" stroke-dasharray="none" points="72.800,373.800 72.800,373.800 "/>
    </g>
  </g>
  <g id ="ID000010">
  <clipPath id="ID000011">
    <rect x="382.833" y="39.167" width="119.000" height="87.667"/>
  </clipPath>
      <polygon fill="#ffffff" fill-opacity="1.00" stroke="none" stroke-width="0.5pt" stroke-opacity="1.00" stroke-dasharray="none" points="382.833,126.833 501.833,126.833 501.833,39.167 382.833,39.167 "/>
      <polygon fill="#ffffff" fill-opacity="1.00" stroke="none" stroke-width="0.5pt" stroke-opacity="1.00" stroke-dasharray="none" points="382.833,39.167 501.833,39.167 501.833,39.167 382.833,39.167 "/>
      <polygon fill="#ffffff" fill-opacity="1.00" stroke="none" stroke-width="0.5pt" stroke-opacity="1.00" stroke-dasharray="none" points="382.833,126.833 382.833,126.833 382.833,39.167 382.833,39.167 "/>
    <g>
<g id="ID000012" >
  <g transform="translate(435.333,62.804)">
    <g transform="rotate(-0.0)">
      <text x="0.000" y="0.000" font-family="Arial" text-anchor="start" font-size="16pt" fill="#000000" >Max T</text>
    </g>
  </g>
</g>
<g id="ID000013" clip-path="url(#ID000011)" >
      <polyline fill="none" stroke="#0000ff" stroke-width="8.0pt" stroke-dasharray="none" points="390.833,55.333 430.833,55.333 "/>
<g>
</g>
</g>
<g id="ID000014" clip-path="url(#ID000011)" >
<g>
</g>
</g>
<g id="ID000015" >
  <g transform="translate(435.333,91.694)">
    <g transform="rotate(-0.0)">
      <text x="0.000" y="0.000" font-family="Arial" text-anchor="start" font-size="16pt" fill="#000000" >Avg T</text>
    </g>
  </g>
</g>
<g id="ID000016" clip-path="url(#ID000011)" >
      <polyline fill="none" stroke="#007f00" stroke-width="12.0pt" stroke-dasharray="none" points="390.833,83.000 430.833,83.000 "/>
<g>
</g>
</g>
<g id="ID000017" clip-path="url(#ID000011)" >
<g>
</g>
</g>
<g id="ID000018" >
  <g transform="translate(435.333,119.588)">
    <g transform="rotate(-0.0)">
      <text x="0.000" y="0.000" font-family="Arial" text-anchor="start" font-size="16pt" fill="#000000" >Min T</text>
    </g>
  </g>
</g>
<g id="ID000019" clip-path="url(#ID000011)" >
      <polyline fill="none" stroke="#ff0000" stroke-width="8.0pt" stroke-dasharray="none" points="390.833,110.667 430.833,110.667 "/>
<g>
</g>
</g>
<g id="ID000020" clip-path="url(#ID000011)" >
<g>
</g>
</g>
<g id="ID000021" >
</g>
<g id="ID000022" >
</g>
<g id="ID000023" >
</g>
    </g>
    <g>
      <polyline fill="none" stroke="#000000" stroke-width="0.5pt" stroke-dasharray="none" points="382.833,126.833 501.833,126.833 "/>
      <polyline fill="none" stroke="#000000" stroke-width="0.5pt" stroke-dasharray="none" points="382.833,39.167 501.833,39.167 "/>
      <polyline fill="none" stroke="#000000" stroke-width="0.5pt" stroke-dasharray="none" points="382.833,126.833 382.833,39.167 "/>
      <polyline fill="none" stroke="#000000" stroke-width="0.5pt" stroke-dasharray="none" points="501.833,126.833 501.833,39.167 "/>
      <polyline fill="none" stroke="#000000" stroke-width="0.5pt" stroke-dasharray="none" points="382.833,126.833 382.833,125.957 "/>
      <polyline fill="none" stroke="#000000" stroke-width="0.5pt" stroke-dasharray="none" points="382.833,126.833 382.833,126.833 "/>
    </g>
  </g>
  </g>
</svg>
